# xmcd
#
# Track frame offsets:
#	150
#	12120
#	37325
#	49757
#	73507
#	88255
#	109980
#	125292
#	144152
#	160765
#	184415
#	197425
#	216727
#	241560
#	249802
#	264575
#	278325
#	296372
#
# Disc length: 4159 seconds
#
# Revision: 1211122231
# Processed by: cddbd v1.5.2PL0 Copyright (c) Steve Scherf et al.
# Submitted via: EZCDAudioConverter 7.1.5.1
#
DISCID=fe103d12
DTITLE=B.B. King - His Definitive Greatest Hits
DYEAR=2015
DGENRE=Blues
TTITLE0=B.B. King - Help The Poor
TTITLE1=B.B. King - So Excited
TTITLE2=B.B. King - Broken Heart
TTITLE3=B.B. King - Ghetto Woman
TTITLE4=B.B. King - Ain't Nobody Home
TTITLE5=B.B. King - Darlin' You Know I Love You
TTITLE6=B.B. King - In The Midnight Hour
TTITLE7=B.B. King - Into The Night
TTITLE8=B.B. King - My Lucille
TTITLE9=B.B. King - The Blues Come Over Me
TTITLE10=B.B. King and Gary Moore - Since I Met You Baby
TTITLE11=B.B. King - I'm Moving On
TTITLE12=B.B. King and Bobby Bland - Let The Good Times Roll (Live)
TTITLE13=B.B. King - Woke Up This Mornin' (Live)
TTITLE14=B.B. King and Bobby Bland - Three O'Clock Blues (Live)
TTITLE15=B.B. King - Please Love Me (Live)
TTITLE16=B.B. King - Caldonia (Live)
TTITLE17=B.B. King - Rock Me Baby (Live)
EXTD=
EXTT0=
EXTT1=
EXTT2=
EXTT3=
EXTT4=
EXTT5=
EXTT6=
EXTT7=
EXTT8=
EXTT9=
EXTT10=
EXTT11=
EXTT12=
EXTT13=
EXTT14=
EXTT15=
EXTT16=
EXTT17=
PLAYORDER=
